# xmcd CD database file
#
# Track frame offsets:
#	150
#	13980
#	24021
#	34888
#	44171
#	54377
#	66468
#	77377
#	89630
#	100911
#	114014
#	127789
#	141606
#	151506
#
# Disc length: 2179 seconds
#
# Revision: 0
# Processed by: cddbd v1.5.1PL0 Copyright (c) Steve Scherf et al.
# Submitted via: CDex 1.40Beta9
#
DISCID=b008810e
DTITLE=Ed Bentley - Here We Go Again!
DYEAR=1900
DGENRE=Country
TTITLE0=Freight Train Boogie
TTITLE1=Rock A Baby Boogie
TTITLE2=Dance Bop A Shoo Bop
TTITLE3=Let't Tear it Up
TTITLE4=Bluebirds Over the Mountain
TTITLE5=You Been Changing Your Mind
TTITLE6=Slap Happy Boogie Band From Tennesee
TTITLE7=Lovin' Man
TTITLE8=Get Rhythm
TTITLE9=I'm Getting Better All the Time
TTITLE10=Honey I'll Be Gone
TTITLE11=The Fool
TTITLE12=OH Yeah
TTITLE13=Matchbox
EXTD=ID3G: 2
EXTT0=
EXTT1=
EXTT2=
EXTT3=
EXTT4=
EXTT5=
EXTT6=
EXTT7=
EXTT8=
EXTT9=
EXTT10=
EXTT11=
EXTT12=
EXTT13=
PLAYORDER=
